<svg width="243" height="56" viewBox="0 0 243 56" fill="none" xmlns="http://www.w3.org/2000/svg">
<path d="M25.4884 53.6144L4.35841 37.1244C3.575 36.513 0 33.723 1.8083 31.4059C2.61707 30.3696 10.8963 25.4173 20.5744 25.1724C31.9193 24.8852 44.1139 29.7479 40.9106 33.8526L25.4884 53.6144Z" fill="url(#paint0_linear_395_3712)"/>
<path d="M25.4786 53.6073L11.3256 23.6981C10.8008 22.5892 8.40625 17.5289 11.6861 15.9768C13.153 15.2827 25.0312 14.4149 35.8402 19.5146C48.5108 25.4926 59.2612 37.6214 53.4511 40.3707L25.4786 53.6073Z" fill="url(#paint1_linear_395_3712)"/>
<path d="M25.3926 53.6413V14.7669C25.3926 13.3256 25.3926 6.74835 29.6495 6.74835C31.5534 6.74835 44.5849 11.7958 53.4882 22.6433C63.9249 35.3589 69.2388 53.6413 61.698 53.6413H25.3926Z" fill="url(#paint2_linear_395_3712)"/>
<path d="M82.7306 31.6162L79.7397 27.272H79.5625H76.4387V31.6162H72.8496V16.0216H79.5625C80.936 16.0216 82.125 16.2518 83.1293 16.7122C84.1485 17.1726 84.9313 17.8261 85.4777 18.6727C86.0242 19.5193 86.2975 20.5218 86.2975 21.6802C86.2975 22.8387 86.0168 23.8412 85.4556 24.6878C84.9091 25.5195 84.1263 26.1581 83.1072 26.6037L86.5855 31.6162H82.7306ZM82.6641 21.6802C82.6641 20.804 82.3835 20.1356 81.8222 19.6752C81.261 19.1999 80.4413 18.9623 79.3631 18.9623H76.4387V24.3982H79.3631C80.4413 24.3982 81.261 24.1605 81.8222 23.6853C82.3835 23.21 82.6641 22.5417 82.6641 21.6802Z" fill="#00094F"/>
<path d="M100.551 19.6307V31.6162H97.2496V30.235C96.393 31.2746 95.1523 31.7945 93.5276 31.7945C92.4051 31.7945 91.386 31.542 90.4703 31.037C89.5694 30.532 88.8604 29.8117 88.3435 28.876C87.8265 27.9404 87.5681 26.8562 87.5681 25.6234C87.5681 24.3907 87.8265 23.3065 88.3435 22.3709C88.8604 21.4352 89.5694 20.7149 90.4703 20.2099C91.386 19.7049 92.4051 19.4524 93.5276 19.4524C95.0489 19.4524 96.2379 19.9351 97.0945 20.9005V19.6307H100.551ZM94.1258 28.9429C94.9972 28.9429 95.7209 28.6458 96.297 28.0518C96.873 27.4428 97.161 26.6334 97.161 25.6234C97.161 24.6135 96.873 23.8115 96.297 23.2174C95.7209 22.6085 94.9972 22.304 94.1258 22.304C93.2396 22.304 92.5085 22.6085 91.9325 23.2174C91.3565 23.8115 91.0685 24.6135 91.0685 25.6234C91.0685 26.6334 91.3565 27.4428 91.9325 28.0518C92.5085 28.6458 93.2396 28.9429 94.1258 28.9429Z" fill="#00094F"/>
<path d="M115.315 19.6307V29.6112C115.315 31.8093 114.761 33.443 113.654 34.5124C112.546 35.5817 110.936 36.1164 108.824 36.1164C107.701 36.1164 106.638 35.9753 105.634 35.6931C104.644 35.4109 103.81 35.0025 103.13 34.4678L104.504 31.9727C105.006 32.3885 105.619 32.7153 106.343 32.9529C107.066 33.1906 107.797 33.3094 108.536 33.3094C109.688 33.3094 110.53 33.042 111.061 32.5074C111.593 31.9727 111.859 31.1558 111.859 30.0568V29.6558C111.416 30.1013 110.892 30.4429 110.286 30.6806C109.68 30.9182 109.031 31.037 108.336 31.037C106.771 31.037 105.53 30.5914 104.614 29.7003C103.699 28.7944 103.241 27.4428 103.241 25.6457V19.6307H106.697V25.1333C106.697 27.0789 107.502 28.0518 109.112 28.0518C109.939 28.0518 110.604 27.7844 111.106 27.2497C111.608 26.7002 111.859 25.8908 111.859 24.8214V19.6307H115.315Z" fill="#00094F"/>
<path d="M122.084 31.7945C121.094 31.7945 120.127 31.6756 119.182 31.438C118.236 31.1855 117.483 30.8736 116.922 30.5023L118.074 28.0072C118.606 28.3488 119.248 28.631 120.001 28.8538C120.755 29.0617 121.493 29.1657 122.217 29.1657C123.679 29.1657 124.41 28.8018 124.41 28.074C124.41 27.7324 124.211 27.4874 123.812 27.3389C123.413 27.1903 122.8 27.0641 121.973 26.9601C120.998 26.8116 120.193 26.6408 119.558 26.4477C118.923 26.2547 118.369 25.9131 117.897 25.4229C117.439 24.9328 117.21 24.2348 117.21 23.3288C117.21 22.5714 117.424 21.903 117.852 21.3238C118.295 20.7297 118.931 20.2693 119.758 19.9425C120.6 19.6158 121.589 19.4524 122.726 19.4524C123.568 19.4524 124.403 19.549 125.23 19.742C126.072 19.9203 126.766 20.1728 127.312 20.4995L126.16 22.9724C125.112 22.3783 123.967 22.0812 122.726 22.0812C121.988 22.0812 121.434 22.1852 121.065 22.3931C120.696 22.6011 120.511 22.8684 120.511 23.1951C120.511 23.5664 120.71 23.8264 121.109 23.9749C121.508 24.1234 122.143 24.2645 123.014 24.3982C123.989 24.5615 124.787 24.7398 125.407 24.9328C126.027 25.1111 126.567 25.4452 127.024 25.9353C127.482 26.4255 127.711 27.1086 127.711 27.9849C127.711 28.7275 127.49 29.3884 127.047 29.9677C126.603 30.5469 125.954 30.9999 125.097 31.3266C124.255 31.6385 123.251 31.7945 122.084 31.7945Z" fill="#00094F"/>
<path d="M142.454 15.7543C143.887 15.7543 145.135 16.0365 146.198 16.6008C147.262 17.1652 148.089 17.9969 148.679 19.096C149.27 20.195 149.566 21.5243 149.566 23.0838V31.6162H145.977V27.8735H138.887V31.6162H135.342V23.0838C135.342 21.5243 135.638 20.195 136.229 19.096C136.819 17.9969 137.646 17.1652 138.71 16.6008C139.773 16.0365 141.021 15.7543 142.454 15.7543ZM145.977 24.9774V22.7496C145.977 21.4575 145.659 20.4846 145.024 19.8312C144.389 19.1628 143.525 18.8286 142.432 18.8286C141.324 18.8286 140.453 19.1628 139.818 19.8312C139.197 20.4846 138.887 21.4575 138.887 22.7496V24.9774H145.977Z" fill="#00094F"/>
<path d="M158.182 31.7945C156.911 31.7945 155.767 31.5346 154.748 31.0147C153.743 30.4801 152.953 29.7449 152.377 28.8092C151.816 27.8735 151.535 26.8116 151.535 25.6234C151.535 24.4353 151.816 23.3734 152.377 22.4377C152.953 21.502 153.743 20.7743 154.748 20.2544C155.767 19.7198 156.911 19.4524 158.182 19.4524C159.437 19.4524 160.53 19.7198 161.46 20.2544C162.406 20.7743 163.092 21.5243 163.521 22.5045L160.84 23.9526C160.22 22.8535 159.326 22.304 158.159 22.304C157.258 22.304 156.513 22.6011 155.922 23.1951C155.331 23.7892 155.036 24.5987 155.036 25.6234C155.036 26.6482 155.331 27.4577 155.922 28.0518C156.513 28.6458 157.258 28.9429 158.159 28.9429C159.341 28.9429 160.235 28.3933 160.84 27.2943L163.521 28.7646C163.092 29.7152 162.406 30.4578 161.46 30.9925C160.53 31.5271 159.437 31.7945 158.182 31.7945Z" fill="#00094F"/>
<path d="M177.013 19.6307V31.6162H173.712V30.235C172.855 31.2746 171.614 31.7945 169.99 31.7945C168.867 31.7945 167.848 31.542 166.932 31.037C166.031 30.532 165.322 29.8117 164.805 28.876C164.288 27.9404 164.03 26.8562 164.03 25.6234C164.03 24.3907 164.288 23.3065 164.805 22.3709C165.322 21.4352 166.031 20.7149 166.932 20.2099C167.848 19.7049 168.867 19.4524 169.99 19.4524C171.511 19.4524 172.7 19.9351 173.556 20.9005V19.6307H177.013ZM170.588 28.9429C171.459 28.9429 172.183 28.6458 172.759 28.0518C173.335 27.4428 173.623 26.6334 173.623 25.6234C173.623 24.6135 173.335 23.8115 172.759 23.2174C172.183 22.6085 171.459 22.304 170.588 22.304C169.702 22.304 168.97 22.6085 168.394 23.2174C167.818 23.8115 167.53 24.6135 167.53 25.6234C167.53 26.6334 167.818 27.4428 168.394 28.0518C168.97 28.6458 169.702 28.9429 170.588 28.9429Z" fill="#00094F"/>
<path d="M191.91 15.0859V31.6162H188.609V30.235C187.752 31.2746 186.512 31.7945 184.887 31.7945C183.765 31.7945 182.745 31.542 181.83 31.037C180.929 30.532 180.22 29.8117 179.703 28.876C179.186 27.9404 178.927 26.8562 178.927 25.6234C178.927 24.3907 179.186 23.3065 179.703 22.3709C180.22 21.4352 180.929 20.7149 181.83 20.2099C182.745 19.7049 183.765 19.4524 184.887 19.4524C186.408 19.4524 187.597 19.9351 188.454 20.9005V15.0859H191.91ZM185.485 28.9429C186.357 28.9429 187.08 28.6458 187.656 28.0518C188.232 27.4428 188.52 26.6334 188.52 25.6234C188.52 24.6135 188.232 23.8115 187.656 23.2174C187.08 22.6085 186.357 22.304 185.485 22.304C184.599 22.304 183.868 22.6085 183.292 23.2174C182.716 23.8115 182.428 24.6135 182.428 25.6234C182.428 26.6334 182.716 27.4428 183.292 28.0518C183.868 28.6458 184.599 28.9429 185.485 28.9429Z" fill="#00094F"/>
<path d="M200.67 29.0097C201.29 29.0097 201.836 28.9206 202.309 28.7424C202.796 28.5493 203.247 28.2523 203.66 27.8513L205.499 29.8563C204.377 31.1484 202.737 31.7945 200.581 31.7945C199.237 31.7945 198.048 31.5346 197.014 31.0147C195.98 30.4801 195.183 29.7449 194.621 28.8092C194.06 27.8735 193.779 26.8116 193.779 25.6234C193.779 24.4501 194.053 23.3956 194.599 22.46C195.16 21.5094 195.921 20.7743 196.881 20.2544C197.856 19.7198 198.949 19.4524 200.16 19.4524C201.297 19.4524 202.331 19.6975 203.262 20.1876C204.192 20.6629 204.931 21.3609 205.477 22.2817C206.038 23.1877 206.319 24.2645 206.319 25.5121L197.501 27.2275C197.753 27.8215 198.144 28.2671 198.676 28.5641C199.222 28.8612 199.887 29.0097 200.67 29.0097ZM200.16 22.0812C199.289 22.0812 198.58 22.3634 198.033 22.9278C197.487 23.4922 197.199 24.2719 197.169 25.267L202.974 24.1308C202.811 23.507 202.479 23.0095 201.977 22.6382C201.475 22.2669 200.869 22.0812 200.16 22.0812Z" fill="#00094F"/>
<path d="M223.464 19.4524C224.955 19.4524 226.137 19.898 227.008 20.7891C227.894 21.6654 228.338 22.9872 228.338 24.7546V31.6162H224.881V25.2893C224.881 24.3387 224.682 23.6333 224.283 23.1729C223.899 22.6976 223.345 22.46 222.622 22.46C221.809 22.46 221.167 22.7273 220.694 23.262C220.222 23.7818 219.985 24.5615 219.985 25.6012V31.6162H216.529V25.2893C216.529 23.4031 215.776 22.46 214.269 22.46C213.472 22.46 212.837 22.7273 212.364 23.262C211.891 23.7818 211.655 24.5615 211.655 25.6012V31.6162H208.199V19.6307H211.5V21.0119C211.943 20.5069 212.482 20.1208 213.117 19.8534C213.767 19.5861 214.476 19.4524 215.244 19.4524C216.086 19.4524 216.847 19.6232 217.526 19.9648C218.206 20.2916 218.752 20.7743 219.166 21.4129C219.653 20.7891 220.266 20.3064 221.004 19.9648C221.758 19.6232 222.577 19.4524 223.464 19.4524Z" fill="#00094F"/>
<path d="M243 19.6307V29.6112C243 31.8093 242.446 33.443 241.339 34.5124C240.231 35.5817 238.621 36.1164 236.509 36.1164C235.386 36.1164 234.323 35.9753 233.319 35.6931C232.329 35.4109 231.494 35.0025 230.815 34.4678L232.189 31.9727C232.691 32.3885 233.304 32.7153 234.027 32.9529C234.751 33.1906 235.482 33.3094 236.221 33.3094C237.373 33.3094 238.215 33.042 238.746 32.5074C239.278 31.9727 239.544 31.1558 239.544 30.0568V29.6558C239.101 30.1013 238.577 30.4429 237.971 30.6806C237.365 30.9182 236.716 31.037 236.021 31.037C234.456 31.037 233.215 30.5914 232.299 29.7003C231.384 28.7944 230.926 27.4428 230.926 25.6457V19.6307H234.382V25.1333C234.382 27.0789 235.187 28.0518 236.797 28.0518C237.624 28.0518 238.289 27.7844 238.791 27.2497C239.293 26.7002 239.544 25.8908 239.544 24.8214V19.6307H243Z" fill="#00094F"/>
<path d="M76.0362 48.3585C75.4673 48.3585 75.0277 48.2059 74.7174 47.9007C74.4071 47.5883 74.252 47.1523 74.252 46.5928V40.2055H75.3159V46.5056C75.3159 46.818 75.3897 47.0578 75.5375 47.225C75.6927 47.3921 75.9217 47.4757 76.2246 47.4757C76.4093 47.4757 76.5829 47.4393 76.7455 47.3667L76.8009 48.2277C76.5571 48.3149 76.3022 48.3585 76.0362 48.3585Z" fill="#00094F"/>
<path d="M84.243 42.5162V48.2931H83.2234V47.3776C82.987 47.6973 82.6877 47.9407 82.3257 48.1078C81.9637 48.275 81.5647 48.3585 81.1288 48.3585C80.5599 48.3585 80.0501 48.235 79.5995 47.9879C79.1488 47.7409 78.7941 47.3957 78.5355 46.9525C78.2843 46.5019 78.1587 45.986 78.1587 45.4047C78.1587 44.8234 78.2843 44.3111 78.5355 43.8678C78.7941 43.4246 79.1488 43.0794 79.5995 42.8323C80.0501 42.5853 80.5599 42.4617 81.1288 42.4617C81.5499 42.4617 81.9378 42.5417 82.2925 42.7015C82.6471 42.8541 82.9426 43.083 83.1791 43.3882V42.5162H84.243ZM81.2175 47.443C81.5869 47.443 81.9231 47.3594 82.226 47.1923C82.5289 47.0179 82.7653 46.7781 82.9352 46.4729C83.1052 46.1604 83.1901 45.8044 83.1901 45.4047C83.1901 45.005 83.1052 44.6526 82.9352 44.3474C82.7653 44.035 82.5289 43.7952 82.226 43.628C81.9231 43.4609 81.5869 43.3773 81.2175 43.3773C80.8407 43.3773 80.5008 43.4609 80.1979 43.628C79.9024 43.7952 79.6659 44.035 79.4886 44.3474C79.3187 44.6526 79.2337 45.005 79.2337 45.4047C79.2337 45.8044 79.3187 46.1604 79.4886 46.4729C79.6659 46.7781 79.9024 47.0179 80.1979 47.1923C80.5008 47.3594 80.8407 47.443 81.2175 47.443Z" fill="#00094F"/>
<path d="M90.3897 42.4617C91.1359 42.4617 91.727 42.6761 92.1629 43.1048C92.6062 43.5263 92.8278 44.1476 92.8278 44.9687V48.2931H91.7639V45.0886C91.7639 44.5291 91.6272 44.1076 91.3539 43.8242C91.0805 43.5408 90.6889 43.3991 90.1791 43.3991C89.6028 43.3991 89.1485 43.5663 88.816 43.9005C88.4835 44.2275 88.3173 44.6998 88.3173 45.3175V48.2931H87.2534V42.5162H88.273V43.3882C88.4872 43.0903 88.7754 42.8614 89.1374 42.7015C89.5068 42.5417 89.9242 42.4617 90.3897 42.4617Z" fill="#00094F"/>
<path d="M101.445 42.5162V47.5084C101.445 48.5184 101.19 49.2632 100.681 49.7428C100.171 50.2297 99.4099 50.4731 98.3977 50.4731C97.8436 50.4731 97.3154 50.3968 96.813 50.2442C96.3106 50.0989 95.9042 49.8881 95.5939 49.612L96.1037 48.8054C96.3771 49.038 96.7132 49.2196 97.1122 49.3504C97.5185 49.4885 97.936 49.5575 98.3645 49.5575C99.0516 49.5575 99.5577 49.3977 99.8828 49.0779C100.215 48.7582 100.381 48.2713 100.381 47.6174V47.1596C100.13 47.4575 99.82 47.6828 99.4506 47.8354C99.0885 47.9807 98.6933 48.0533 98.2647 48.0533C97.7032 48.0533 97.1935 47.9371 96.7354 47.7046C96.2847 47.4648 95.9301 47.1341 95.6715 46.7127C95.4129 46.2839 95.2836 45.7971 95.2836 45.2521C95.2836 44.7071 95.4129 44.2239 95.6715 43.8024C95.9301 43.3737 96.2847 43.0431 96.7354 42.8105C97.1935 42.578 97.7032 42.4617 98.2647 42.4617C98.708 42.4617 99.1181 42.5417 99.4949 42.7015C99.8791 42.8614 100.193 43.0976 100.437 43.41V42.5162H101.445ZM98.3867 47.1378C98.7708 47.1378 99.1144 47.0578 99.4173 46.898C99.7276 46.7381 99.9677 46.5165 100.138 46.2331C100.315 45.9424 100.404 45.6154 100.404 45.2521C100.404 44.6926 100.215 44.242 99.8384 43.9005C99.4616 43.5517 98.9777 43.3773 98.3867 43.3773C97.7882 43.3773 97.3006 43.5517 96.9238 43.9005C96.547 44.242 96.3586 44.6926 96.3586 45.2521C96.3586 45.6154 96.4435 45.9424 96.6135 46.2331C96.7908 46.5165 97.0309 46.7381 97.3338 46.898C97.6441 47.0578 97.9951 47.1378 98.3867 47.1378Z" fill="#00094F"/>
<path d="M109.95 42.5162V48.2931H108.942V47.4212C108.728 47.7191 108.443 47.9516 108.088 48.1187C107.741 48.2786 107.361 48.3585 106.947 48.3585C106.164 48.3585 105.547 48.1478 105.096 47.7264C104.646 47.2976 104.42 46.6691 104.42 45.8407V42.5162H105.484V45.7208C105.484 46.2803 105.621 46.7054 105.894 46.9961C106.168 47.2795 106.559 47.4212 107.069 47.4212C107.63 47.4212 108.074 47.254 108.399 46.9198C108.724 46.5855 108.886 46.1132 108.886 45.5028V42.5162H109.95Z" fill="#00094F"/>
<path d="M118.514 42.5162V48.2931H117.495V47.3776C117.258 47.6973 116.959 47.9407 116.597 48.1078C116.235 48.275 115.836 48.3585 115.4 48.3585C114.831 48.3585 114.321 48.235 113.871 47.9879C113.42 47.7409 113.065 47.3957 112.807 46.9525C112.556 46.5019 112.43 45.986 112.43 45.4047C112.43 44.8234 112.556 44.3111 112.807 43.8678C113.065 43.4246 113.42 43.0794 113.871 42.8323C114.321 42.5853 114.831 42.4617 115.4 42.4617C115.821 42.4617 116.209 42.5417 116.564 42.7015C116.918 42.8541 117.214 43.083 117.45 43.3882V42.5162H118.514ZM115.489 47.443C115.858 47.443 116.194 47.3594 116.497 47.1923C116.8 47.0179 117.037 46.7781 117.207 46.4729C117.377 46.1604 117.461 45.8044 117.461 45.4047C117.461 45.005 117.377 44.6526 117.207 44.3474C117.037 44.035 116.8 43.7952 116.497 43.628C116.194 43.4609 115.858 43.3773 115.489 43.3773C115.112 43.3773 114.772 43.4609 114.469 43.628C114.174 43.7952 113.937 44.035 113.76 44.3474C113.59 44.6526 113.505 45.005 113.505 45.4047C113.505 45.8044 113.59 46.1604 113.76 46.4729C113.937 46.7781 114.174 47.0179 114.469 47.1923C114.772 47.3594 115.112 47.443 115.489 47.443Z" fill="#00094F"/>
<path d="M127.143 42.5162V47.5084C127.143 48.5184 126.889 49.2632 126.379 49.7428C125.869 50.2297 125.108 50.4731 124.096 50.4731C123.542 50.4731 123.013 50.3968 122.511 50.2442C122.009 50.0989 121.602 49.8881 121.292 49.612L121.802 48.8054C122.075 49.038 122.411 49.2196 122.81 49.3504C123.217 49.4885 123.634 49.5575 124.063 49.5575C124.75 49.5575 125.256 49.3977 125.581 49.0779C125.913 48.7582 126.08 48.2713 126.08 47.6174V47.1596C125.828 47.4575 125.518 47.6828 125.149 47.8354C124.787 47.9807 124.391 48.0533 123.963 48.0533C123.401 48.0533 122.892 47.9371 122.433 47.7046C121.983 47.4648 121.628 47.1341 121.37 46.7127C121.111 46.2839 120.982 45.7971 120.982 45.2521C120.982 44.7071 121.111 44.2239 121.37 43.8024C121.628 43.3737 121.983 43.0431 122.433 42.8105C122.892 42.578 123.401 42.4617 123.963 42.4617C124.406 42.4617 124.816 42.5417 125.193 42.7015C125.577 42.8614 125.891 43.0976 126.135 43.41V42.5162H127.143ZM124.085 47.1378C124.469 47.1378 124.812 47.0578 125.115 46.898C125.426 46.7381 125.666 46.5165 125.836 46.2331C126.013 45.9424 126.102 45.6154 126.102 45.2521C126.102 44.6926 125.913 44.242 125.537 43.9005C125.16 43.5517 124.676 43.3773 124.085 43.3773C123.486 43.3773 122.999 43.5517 122.622 43.9005C122.245 44.242 122.057 44.6926 122.057 45.2521C122.057 45.6154 122.142 45.9424 122.312 46.2331C122.489 46.5165 122.729 46.7381 123.032 46.898C123.342 47.0578 123.693 47.1378 124.085 47.1378Z" fill="#00094F"/>
<path d="M132.822 47.443C133.524 47.443 134.089 47.2104 134.518 46.7454L135.094 47.4212C134.836 47.7264 134.507 47.9589 134.108 48.1187C133.716 48.2786 133.277 48.3585 132.789 48.3585C132.169 48.3585 131.618 48.235 131.138 47.9879C130.658 47.7336 130.285 47.3812 130.019 46.9307C129.76 46.4801 129.631 45.9715 129.631 45.4047C129.631 44.8452 129.756 44.3401 130.007 43.8896C130.266 43.4391 130.617 43.0903 131.06 42.8432C131.511 42.5889 132.017 42.4617 132.579 42.4617C133.111 42.4617 133.594 42.5816 134.03 42.8214C134.466 43.054 134.814 43.3846 135.072 43.8133C135.331 44.242 135.464 44.7362 135.471 45.2957L130.805 46.1895C130.953 46.5891 131.201 46.898 131.548 47.116C131.903 47.334 132.327 47.443 132.822 47.443ZM132.579 43.3446C132.209 43.3446 131.877 43.4282 131.581 43.5953C131.293 43.7625 131.068 43.9986 130.905 44.3038C130.743 44.6017 130.661 44.9505 130.661 45.3502V45.4592L134.418 44.7616C134.322 44.3401 134.108 43.9986 133.775 43.737C133.443 43.4754 133.044 43.3446 132.579 43.3446Z" fill="#00094F"/>
<path d="M143.715 48.3585C143.146 48.3585 142.706 48.2059 142.396 47.9007C142.086 47.5883 141.931 47.1523 141.931 46.5928V40.2055H142.994V46.5056C142.994 46.818 143.068 47.0578 143.216 47.225C143.371 47.3921 143.6 47.4757 143.903 47.4757C144.088 47.4757 144.262 47.4393 144.424 47.3667L144.479 48.2277C144.236 48.3149 143.981 48.3585 143.715 48.3585Z" fill="#00094F"/>
<path d="M149.029 47.443C149.731 47.443 150.296 47.2104 150.725 46.7454L151.301 47.4212C151.042 47.7264 150.714 47.9589 150.315 48.1187C149.923 48.2786 149.483 48.3585 148.996 48.3585C148.375 48.3585 147.825 48.235 147.345 47.9879C146.864 47.7336 146.491 47.3812 146.225 46.9307C145.967 46.4801 145.837 45.9715 145.837 45.4047C145.837 44.8452 145.963 44.3401 146.214 43.8896C146.473 43.4391 146.824 43.0903 147.267 42.8432C147.718 42.5889 148.224 42.4617 148.785 42.4617C149.317 42.4617 149.801 42.5816 150.237 42.8214C150.673 43.054 151.02 43.3846 151.279 43.8133C151.537 44.242 151.67 44.7362 151.678 45.2957L147.012 46.1895C147.16 46.5891 147.407 46.898 147.755 47.116C148.109 47.334 148.534 47.443 149.029 47.443ZM148.785 43.3446C148.416 43.3446 148.083 43.4282 147.788 43.5953C147.5 43.7625 147.274 43.9986 147.112 44.3038C146.949 44.6017 146.868 44.9505 146.868 45.3502V45.4592L150.625 44.7616C150.529 44.3401 150.315 43.9986 149.982 43.737C149.65 43.4754 149.251 43.3446 148.785 43.3446Z" fill="#00094F"/>
<path d="M159.705 42.5162V48.2931H158.685V47.3776C158.449 47.6973 158.15 47.9407 157.787 48.1078C157.425 48.275 157.027 48.3585 156.591 48.3585C156.022 48.3585 155.512 48.235 155.061 47.9879C154.611 47.7409 154.256 47.3957 153.997 46.9525C153.746 46.5019 153.621 45.986 153.621 45.4047C153.621 44.8234 153.746 44.3111 153.997 43.8678C154.256 43.4246 154.611 43.0794 155.061 42.8323C155.512 42.5853 156.022 42.4617 156.591 42.4617C157.012 42.4617 157.4 42.5417 157.754 42.7015C158.109 42.8541 158.404 43.083 158.641 43.3882V42.5162H159.705ZM156.679 47.443C157.049 47.443 157.385 47.3594 157.688 47.1923C157.991 47.0179 158.227 46.7781 158.397 46.4729C158.567 46.1604 158.652 45.8044 158.652 45.4047C158.652 45.005 158.567 44.6526 158.397 44.3474C158.227 44.035 157.991 43.7952 157.688 43.628C157.385 43.4609 157.049 43.3773 156.679 43.3773C156.302 43.3773 155.963 43.4609 155.66 43.628C155.364 43.7952 155.128 44.035 154.95 44.3474C154.78 44.6526 154.696 45.005 154.696 45.4047C154.696 45.8044 154.78 46.1604 154.95 46.4729C155.128 46.7781 155.364 47.0179 155.66 47.1923C155.963 47.3594 156.302 47.443 156.679 47.443Z" fill="#00094F"/>
<path d="M163.735 43.4863C163.919 43.1521 164.193 42.8977 164.555 42.7233C164.917 42.5489 165.356 42.4617 165.874 42.4617V43.4754C165.815 43.4682 165.733 43.4645 165.63 43.4645C165.054 43.4645 164.599 43.6353 164.267 43.9768C163.942 44.3111 163.779 44.7907 163.779 45.4156V48.2931H162.715V42.5162H163.735V43.4863Z" fill="#00094F"/>
<path d="M171.319 42.4617C172.065 42.4617 172.656 42.6761 173.092 43.1048C173.535 43.5263 173.757 44.1476 173.757 44.9687V48.2931H172.693V45.0886C172.693 44.5291 172.556 44.1076 172.283 43.8242C172.009 43.5408 171.618 43.3991 171.108 43.3991C170.532 43.3991 170.077 43.5663 169.745 43.9005C169.412 44.2275 169.246 44.6998 169.246 45.3175V48.2931H168.182V42.5162H169.202V43.3882C169.416 43.0903 169.704 42.8614 170.066 42.7015C170.436 42.5417 170.853 42.4617 171.319 42.4617Z" fill="#00094F"/>
<path d="M176.723 42.5162H177.787V48.2931H176.723V42.5162ZM177.255 41.4045C177.048 41.4045 176.875 41.3391 176.734 41.2083C176.601 41.0775 176.535 40.9176 176.535 40.7287C176.535 40.5397 176.601 40.3799 176.734 40.2491C176.875 40.111 177.048 40.042 177.255 40.042C177.462 40.042 177.632 40.1074 177.765 40.2382C177.905 40.3617 177.975 40.5179 177.975 40.7069C177.975 40.9031 177.905 41.0702 177.765 41.2083C177.632 41.3391 177.462 41.4045 177.255 41.4045Z" fill="#00094F"/>
<path d="M183.952 42.4617C184.698 42.4617 185.289 42.6761 185.725 43.1048C186.169 43.5263 186.39 44.1476 186.39 44.9687V48.2931H185.326V45.0886C185.326 44.5291 185.19 44.1076 184.916 43.8242C184.643 43.5408 184.251 43.3991 183.742 43.3991C183.165 43.3991 182.711 43.5663 182.378 43.9005C182.046 44.2275 181.88 44.6998 181.88 45.3175V48.2931H180.816V42.5162H181.835V43.3882C182.05 43.0903 182.338 42.8614 182.7 42.7015C183.069 42.5417 183.487 42.4617 183.952 42.4617Z" fill="#00094F"/>
<path d="M195.008 42.5162V47.5084C195.008 48.5184 194.753 49.2632 194.243 49.7428C193.733 50.2297 192.972 50.4731 191.96 50.4731C191.406 50.4731 190.878 50.3968 190.375 50.2442C189.873 50.0989 189.467 49.8881 189.156 49.612L189.666 48.8054C189.939 49.038 190.276 49.2196 190.675 49.3504C191.081 49.4885 191.498 49.5575 191.927 49.5575C192.614 49.5575 193.12 49.3977 193.445 49.0779C193.778 48.7582 193.944 48.2713 193.944 47.6174V47.1596C193.693 47.4575 193.382 47.6828 193.013 47.8354C192.651 47.9807 192.256 48.0533 191.827 48.0533C191.266 48.0533 190.756 47.9371 190.298 47.7046C189.847 47.4648 189.492 47.1341 189.234 46.7127C188.975 46.2839 188.846 45.7971 188.846 45.2521C188.846 44.7071 188.975 44.2239 189.234 43.8024C189.492 43.3737 189.847 43.0431 190.298 42.8105C190.756 42.578 191.266 42.4617 191.827 42.4617C192.27 42.4617 192.68 42.5417 193.057 42.7015C193.441 42.8614 193.755 43.0976 193.999 43.41V42.5162H195.008ZM191.949 47.1378C192.333 47.1378 192.677 47.0578 192.98 46.898C193.29 46.7381 193.53 46.5165 193.7 46.2331C193.877 45.9424 193.966 45.6154 193.966 45.2521C193.966 44.6926 193.778 44.242 193.401 43.9005C193.024 43.5517 192.54 43.3773 191.949 43.3773C191.351 43.3773 190.863 43.5517 190.486 43.9005C190.109 44.242 189.921 44.6926 189.921 45.2521C189.921 45.6154 190.006 45.9424 190.176 46.2331C190.353 46.5165 190.593 46.7381 190.896 46.898C191.207 47.0578 191.557 47.1378 191.949 47.1378Z" fill="#00094F"/>
<path d="M203.696 48.3585C203.216 48.3585 202.754 48.2968 202.311 48.1732C201.868 48.0424 201.52 47.8789 201.269 47.6828L201.712 46.8544C201.971 47.036 202.285 47.1814 202.654 47.2904C203.024 47.3994 203.397 47.4539 203.774 47.4539C204.705 47.4539 205.17 47.1923 205.17 46.6691C205.17 46.4947 205.107 46.3566 204.982 46.2549C204.856 46.1531 204.697 46.0805 204.505 46.0369C204.32 45.986 204.055 45.9315 203.707 45.8734C203.234 45.8007 202.847 45.7172 202.544 45.6227C202.248 45.5282 201.993 45.3684 201.779 45.1431C201.565 44.9178 201.458 44.6017 201.458 44.1948C201.458 43.6716 201.679 43.2538 202.122 42.9413C202.566 42.6216 203.161 42.4617 203.907 42.4617C204.298 42.4617 204.69 42.509 205.081 42.6034C205.473 42.6979 205.794 42.8251 206.046 42.9849L205.591 43.8133C205.111 43.5081 204.546 43.3555 203.896 43.3555C203.445 43.3555 203.101 43.4282 202.865 43.5735C202.629 43.7189 202.51 43.9114 202.51 44.1512C202.51 44.3401 202.577 44.4891 202.71 44.5981C202.843 44.7071 203.005 44.787 203.197 44.8379C203.397 44.8888 203.674 44.9469 204.029 45.0123C204.502 45.0922 204.882 45.1794 205.17 45.2739C205.466 45.3611 205.717 45.5137 205.924 45.7317C206.131 45.9497 206.234 46.2549 206.234 46.6473C206.234 47.1705 206.005 47.5883 205.547 47.9007C205.096 48.2059 204.479 48.3585 203.696 48.3585Z" fill="#00094F"/>
<path d="M211.121 48.3585C210.523 48.3585 209.987 48.2314 209.514 47.977C209.049 47.7227 208.683 47.3739 208.417 46.9307C208.151 46.4801 208.018 45.9715 208.018 45.4047C208.018 44.8379 208.151 44.3329 208.417 43.8896C208.683 43.4391 209.049 43.0903 209.514 42.8432C209.987 42.5889 210.523 42.4617 211.121 42.4617C211.653 42.4617 212.126 42.5671 212.54 42.7778C212.961 42.9886 213.286 43.2938 213.515 43.6934L212.706 44.2057C212.521 43.9296 212.292 43.7225 212.019 43.5844C211.745 43.4464 211.442 43.3773 211.11 43.3773C210.726 43.3773 210.379 43.4609 210.068 43.628C209.765 43.7952 209.525 44.035 209.348 44.3474C209.178 44.6526 209.093 45.005 209.093 45.4047C209.093 45.8116 209.178 46.1713 209.348 46.4838C209.525 46.789 209.765 47.0251 210.068 47.1923C210.379 47.3594 210.726 47.443 211.11 47.443C211.442 47.443 211.745 47.3739 212.019 47.2359C212.292 47.0978 212.521 46.8907 212.706 46.6146L213.515 47.116C213.286 47.5156 212.961 47.8245 212.54 48.0424C212.126 48.2532 211.653 48.3585 211.121 48.3585Z" fill="#00094F"/>
<path d="M218.95 42.4617C219.696 42.4617 220.288 42.6761 220.723 43.1048C221.167 43.5263 221.388 44.1476 221.388 44.9687V48.2931H220.324V45.0886C220.324 44.5291 220.188 44.1076 219.914 43.8242C219.641 43.5408 219.249 43.3991 218.74 43.3991C218.163 43.3991 217.709 43.5663 217.377 43.9005C217.044 44.2275 216.878 44.6998 216.878 45.3175V48.2931H215.814V40.2055H216.878V43.3337C217.1 43.0576 217.388 42.8432 217.742 42.6906C218.104 42.538 218.507 42.4617 218.95 42.4617Z" fill="#00094F"/>
<path d="M226.903 48.3585C226.319 48.3585 225.795 48.2314 225.329 47.977C224.864 47.7227 224.498 47.3739 224.232 46.9307C223.973 46.4801 223.844 45.9715 223.844 45.4047C223.844 44.8379 223.973 44.3329 224.232 43.8896C224.498 43.4391 224.864 43.0903 225.329 42.8432C225.795 42.5889 226.319 42.4617 226.903 42.4617C227.487 42.4617 228.007 42.5889 228.466 42.8432C228.931 43.0903 229.293 43.4391 229.552 43.8896C229.818 44.3329 229.951 44.8379 229.951 45.4047C229.951 45.9715 229.818 46.4801 229.552 46.9307C229.293 47.3739 228.931 47.7227 228.466 47.977C228.007 48.2314 227.487 48.3585 226.903 48.3585ZM226.903 47.443C227.28 47.443 227.616 47.3594 227.911 47.1923C228.214 47.0179 228.451 46.7781 228.621 46.4729C228.791 46.1604 228.876 45.8044 228.876 45.4047C228.876 45.005 228.791 44.6526 228.621 44.3474C228.451 44.035 228.214 43.7952 227.911 43.628C227.616 43.4609 227.28 43.3773 226.903 43.3773C226.526 43.3773 226.186 43.4609 225.883 43.628C225.588 43.7952 225.351 44.035 225.174 44.3474C225.004 44.6526 224.919 45.005 224.919 45.4047C224.919 45.8044 225.004 46.1604 225.174 46.4729C225.351 46.7781 225.588 47.0179 225.883 47.1923C226.186 47.3594 226.526 47.443 226.903 47.443Z" fill="#00094F"/>
<path d="M234.935 48.3585C234.351 48.3585 233.827 48.2314 233.361 47.977C232.896 47.7227 232.53 47.3739 232.264 46.9307C232.006 46.4801 231.876 45.9715 231.876 45.4047C231.876 44.8379 232.006 44.3329 232.264 43.8896C232.53 43.4391 232.896 43.0903 233.361 42.8432C233.827 42.5889 234.351 42.4617 234.935 42.4617C235.519 42.4617 236.04 42.5889 236.498 42.8432C236.963 43.0903 237.325 43.4391 237.584 43.8896C237.85 44.3329 237.983 44.8379 237.983 45.4047C237.983 45.9715 237.85 46.4801 237.584 46.9307C237.325 47.3739 236.963 47.7227 236.498 47.977C236.04 48.2314 235.519 48.3585 234.935 48.3585ZM234.935 47.443C235.312 47.443 235.648 47.3594 235.944 47.1923C236.246 47.0179 236.483 46.7781 236.653 46.4729C236.823 46.1604 236.908 45.8044 236.908 45.4047C236.908 45.005 236.823 44.6526 236.653 44.3474C236.483 44.035 236.246 43.7952 235.944 43.628C235.648 43.4609 235.312 43.3773 234.935 43.3773C234.558 43.3773 234.218 43.4609 233.915 43.628C233.62 43.7952 233.383 44.035 233.206 44.3474C233.036 44.6526 232.951 45.005 232.951 45.4047C232.951 45.8044 233.036 46.1604 233.206 46.4729C233.383 46.7781 233.62 47.0179 233.915 47.1923C234.218 47.3594 234.558 47.443 234.935 47.443Z" fill="#00094F"/>
<path d="M242.236 48.3585C241.667 48.3585 241.227 48.2059 240.917 47.9007C240.607 47.5883 240.451 47.1523 240.451 46.5928V40.2055H241.515V46.5056C241.515 46.818 241.589 47.0578 241.737 47.225C241.892 47.3921 242.121 47.4757 242.424 47.4757C242.609 47.4757 242.782 47.4393 242.945 47.3667L243 48.2277C242.757 48.3149 242.502 48.3585 242.236 48.3585Z" fill="#00094F"/>
<defs>
<linearGradient id="paint0_linear_395_3712" x1="-2.15397" y1="33.4801" x2="43.8365" y2="35.0174" gradientUnits="userSpaceOnUse">
<stop stop-color="#FC056D"/>
<stop offset="1" stop-color="#BD0A0A"/>
</linearGradient>
<linearGradient id="paint1_linear_395_3712" x1="6.1656" y1="16.0659" x2="56.0315" y2="43.2786" gradientUnits="userSpaceOnUse">
<stop stop-color="#1BF0E3"/>
<stop offset="1" stop-color="#7313EE"/>
</linearGradient>
<linearGradient id="paint2_linear_395_3712" x1="23.7506" y1="4.06875" x2="63.0483" y2="57.9727" gradientUnits="userSpaceOnUse">
<stop stop-color="#CDFE0B"/>
<stop offset="1" stop-color="#259BF0"/>
</linearGradient>
</defs>
</svg>
